<?xml version="1.0" encoding="UTF-8"?>
<svg width="480px" height="478px" viewBox="156 25 480 478" xmlns="http://www.w3.org/2000/svg" xmlns:xlink="http://www.w3.org/1999/xlink" version="1.1">
 <!-- Generated by Pixelmator Pro 2.1.2 -->
 <g id="g10">
  <g id="g12">
   <g id="g14">
    <g id="g16">
     <defs>
      <radialGradient id="radial-gradient" gradientUnits="userSpaceOnUse" cx="-0" cy="772.92" r="1" fx="-0" fy="772.92">
       <stop offset="0" stop-color="#ffffff" stop-opacity="1"/>
       <stop offset="1" stop-color="#3a9d5f" stop-opacity="1"/>
      </radialGradient>
     </defs>
     <path id="path28" d="M163.661 291.387 C146.413 344.497 175.471 401.553 228.587 418.799 256.492 427.867 285.479 424.135 309.211 410.851 306.308 386.448 312.233 360.959 327.804 339.524 336.691 327.277 347.833 317.647 360.237 310.723 357.379 286.88 346.096 264.72 328.485 248.407 315.592 254.376 301.257 257.719 286.127 257.719 259.625 257.719 235.519 247.511 217.491 230.829 192.791 242.229 172.729 263.489 163.661 291.387" fill-opacity="1" fill="url(#radial-gradient)" stroke="none"/>
    </g>
   </g>
   <g id="g30">
    <g id="g32">
     <defs>
      <radialGradient id="radial-gradient-1" gradientUnits="userSpaceOnUse" cx="-0" cy="772.92" r="1" fx="-0" fy="772.92">
       <stop offset="0" stop-color="#ffffff" stop-opacity="1"/>
       <stop offset="1" stop-color="#3e9fbf" stop-opacity="1"/>
      </radialGradient>
     </defs>
     <path id="path44" d="M360.237 310.723 C361.919 324.813 360.671 339.496 355.988 353.879 347.805 379.085 330.647 398.856 309.211 410.851 312.421 437.855 326.436 463.504 350.173 480.749 395.347 513.577 458.585 503.561 491.409 458.389 508.649 434.637 514.053 405.931 508.755 379.239 484.665 374.467 462.235 360.959 446.659 339.524 437.765 327.277 432.045 313.708 429.291 299.773 422.805 298.493 416.239 297.86 409.695 297.86 392.488 297.859 375.416 302.235 360.237 310.723" fill-opacity="1" fill="url(#radial-gradient-1)" stroke="none"/>
    </g>
   </g>
   <g id="g46">
    <g id="g48">
     <defs>
      <radialGradient id="radial-gradient-2" gradientUnits="userSpaceOnUse" cx="0" cy="772.92" r="1" fx="0" fy="772.92">
       <stop offset="0" stop-color="#ffffff" stop-opacity="1"/>
       <stop offset="1" stop-color="#8d428d" stop-opacity="1"/>
      </radialGradient>
     </defs>
     <path id="path60" d="M483.396 226.472 C469.007 231.149 454.327 232.403 440.227 230.715 428.527 251.672 424.631 276.231 429.291 299.773 443.225 302.528 456.793 308.248 469.039 317.155 490.475 332.725 503.973 355.148 508.755 379.239 535.444 384.536 564.157 379.137 587.9 361.892 633.077 329.063 643.092 265.824 610.264 220.651 593.011 196.917 567.371 182.897 540.367 179.695 528.365 201.128 508.6 218.277 483.396 226.472" fill-opacity="1" fill="url(#radial-gradient-2)" stroke="none"/>
    </g>
   </g>
   <g id="g62">
    <g id="g64">
     <defs>
      <radialGradient id="radial-gradient-3" gradientUnits="userSpaceOnUse" cx="-0" cy="772.92" r="1" fx="-0" fy="772.92">
       <stop offset="0" stop-color="#ffffff" stop-opacity="1"/>
       <stop offset="1" stop-color="#f89d36" stop-opacity="1"/>
      </radialGradient>
     </defs>
     <path id="path76" d="M185.012 156.609 C185.012 185.948 197.517 212.363 217.491 230.829 239.793 220.535 265.873 218.277 291.073 226.472 305.463 231.149 318.071 238.761 328.485 248.407 350.273 238.344 367.855 220.751 377.924 198.969 368.279 188.553 360.671 175.945 355.988 161.557 347.805 136.351 350.057 110.273 360.352 87.973 341.873 68 315.472 55.503 286.127 55.503 230.275 55.503 185.012 100.769 185.012 156.609" fill-opacity="1" fill="url(#radial-gradient-3)" stroke="none"/>
    </g>
   </g>
   <g id="g78">
    <g id="g80">
     <defs>
      <radialGradient id="radial-gradient-4" gradientUnits="userSpaceOnUse" cx="-0" cy="772.92" r="1" fx="-0" fy="772.92">
       <stop offset="0" stop-color="#ffffff" stop-opacity="1"/>
       <stop offset="1" stop-color="#f04339" stop-opacity="1"/>
      </radialGradient>
     </defs>
     <path id="path92" d="M420.904 34.144 C392.995 43.213 371.753 63.273 360.352 87.973 377.028 106.007 387.235 130.112 387.235 156.609 387.235 171.74 383.893 186.08 377.924 198.969 394.243 216.573 416.395 227.868 440.227 230.715 447.152 218.316 456.793 207.185 469.039 198.287 490.475 182.711 515.972 176.792 540.367 179.695 553.637 155.956 557.384 126.969 548.317 99.065 534.432 56.333 494.789 29.168 452.171 29.167 441.813 29.167 431.285 30.769 420.904 34.144" fill-opacity="1" fill="url(#radial-gradient-4)" stroke="none"/>
    </g>
   </g>
  </g>
 </g>
</svg>
